<?xml version="1.0" encoding="utf-8"?>
<!-- Generator: Adobe Illustrator 27.3.1, SVG Export Plug-In . SVG Version: 6.00 Build 0)  -->
<svg version="1.1" id="Layer_1" xmlns="http://www.w3.org/2000/svg" xmlns:xlink="http://www.w3.org/1999/xlink" x="0px" y="0px"
	 viewBox="0 0 172.5 155" style="enable-background:new 0 0 172.5 155;" xml:space="preserve">
<style type="text/css">
	.st0{display:none;fill:none;}
	.st1{fill:#56008A;}
	.st2{display:none;}
</style>
<g id="outer-wrapper" transform="matrix(1,0,0,1,0,0)">
	<g id="inner-wrapper" transform="matrix(0.964349376114082,0,0,0.964349376114082,10,2.7629233511586477)">
		<rect x="184.2" y="46.2" class="st0" width="376.6" height="80.2"/>
		<path class="st1" d="M204.8,58c-0.8,4.4-1.3,8.5-1.6,12.4s-0.4,7.6-0.4,11.2c1.2-2.7,2.4-5.4,3.5-8.3c1.2-2.9,2.3-5.8,3.5-8.9
			c1.2,3.4,2.4,6.6,3.5,9.5s2.5,5.7,3.9,8.4v-3.2c0-3.6-0.2-7.1-0.5-10.6c-0.3-3.5-0.9-6.8-1.7-10c0.1,0.1,0.4,0.2,0.8,0.3
			c0.5,0.1,1.1,0.2,1.8,0.3c0.7,0.1,1.6,0.2,2.6,0.2c1,0.1,2.1,0.1,3.3,0.1c1.8,0,3.8-0.1,5.8-0.3c2.1-0.2,4.2-0.6,6.3-1.1
			c-0.5,1-1,2.4-1.5,4.1c-0.5,1.7-0.9,3.7-1.3,5.9c-0.4,2.2-0.8,4.6-1.1,7.2c-0.3,2.6-0.6,5.3-0.8,8c-0.2,2.8-0.4,5.6-0.5,8.4
			c-0.1,2.8-0.2,5.6-0.2,8.3c0,1.7,0,3.4,0.1,4.9c0.1,1.6,0.1,3.1,0.3,4.6c-2.3-0.4-4.4-0.7-6.2-0.8c-1.8-0.1-3.4-0.2-4.8-0.2
			c-0.9,0-1.6,0-2.3,0.1c-0.7,0-1.2,0.1-1.7,0.1c-0.5,0.1-1,0.1-1.4,0.2c-0.3-2.1-0.6-4.1-0.9-6c-0.3-2-0.6-3.8-1-5.6
			c-0.4-1.8-0.8-3.5-1.4-5.1c-0.5-1.6-1.1-3-1.8-4.3c-0.5,1.5-1,3.1-1.4,4.7s-0.7,3.3-1,5.1c-0.3,1.8-0.4,3.7-0.6,5.7
			c-0.1,2-0.2,4.1-0.2,6.3c-2.3-0.4-4.4-0.7-6.2-0.8c-1.8-0.1-3.4-0.2-4.7-0.2c-0.9,0-1.7,0-2.3,0.1c-0.7,0-1.2,0.1-1.7,0.1
			c-0.5,0.1-1,0.1-1.3,0.2c0.1-2.6,0.2-5.3,0.2-8.1c0-2.6-0.1-5.3-0.2-8c-0.1-2.7-0.3-5.4-0.5-8.1c-0.2-2.7-0.5-5.3-0.9-7.8
			c-0.3-2.5-0.7-4.9-1.1-7.2c-0.4-2.2-0.9-4.3-1.5-6.1c-0.5-1.9-1.1-3.5-1.8-4.8c0.7,0.2,1.5,0.3,2.3,0.5c0.8,0.1,1.7,0.2,2.8,0.3
			c1.1,0.1,2.3,0.1,3.6,0.1c1.7,0,3.5-0.1,5.5-0.3C200.5,58.9,202.6,58.5,204.8,58 M256.4,77.1c-0.7,0-1.4,0.2-1.9,0.6
			c-0.6,0.4-1.1,1-1.6,1.7c-0.4,0.7-0.8,1.6-1.2,2.6c-0.3,1-0.6,2.1-0.8,3.4c0,2,0,4,0.1,6c0.1,2,0.2,4,0.5,6s0.5,3.9,0.8,5.8
			c0.3,1.9,0.7,3.7,1.2,5.3c-0.4,0-0.8-0.1-1.3-0.1c-0.4,0-0.9-0.1-1.5-0.1c-0.6,0-1.3,0-2,0c-1.4,0-3.1,0.1-5,0.2
			c-1.9,0.1-4,0.4-6.3,0.7c0.3-1.3,0.5-2.9,0.7-4.8c0.2-1.9,0.4-3.9,0.5-6.1c0.1-2.2,0.3-4.5,0.3-6.9c0.1-2.4,0.1-4.8,0.1-7.1
			c0-1.7,0-3.4-0.1-5.1c0-1.7-0.1-3.2-0.2-4.7c-0.1-1.5-0.2-2.8-0.3-4.1c-0.1-1.2-0.3-2.3-0.5-3.2c1.9,0.3,3.6,0.5,5.1,0.7
			c1.5,0.1,2.9,0.2,4.2,0.2c0.8,0,1.5,0,2.1-0.1c0.6,0,1.1-0.1,1.6-0.1c0.5-0.1,0.9-0.1,1.3-0.2c-0.3,1.2-0.5,2.4-0.6,3.8
			c1.2-1.5,2.5-2.5,3.9-3.2c1.4-0.7,2.8-1,4-1c2.1,0,3.8,0.4,5.3,1.1c1.4,0.8,2.6,1.7,3.5,2.9c0.9,1.2,1.5,2.6,1.9,4.1
			c0.4,1.6,0.6,3.1,0.6,4.7c0,1.5-0.2,3.1-0.7,4.5c-0.4,1.5-1.1,2.8-1.9,4c-0.8,1.2-1.9,2.1-3.1,2.8c-1.2,0.7-2.6,1.1-4.2,1.1
			c-1.4,0-2.5-0.2-3.5-0.7c-1-0.5-1.7-1.1-2.4-1.8c-0.6-0.7-1.1-1.6-1.4-2.4c-0.3-0.9-0.4-1.8-0.4-2.7c0-0.9,0.1-1.8,0.4-2.7
			c0.3-0.9,0.6-1.7,1.2-2.4c0.2,0.5,0.4,0.9,0.6,1.2c0.2,0.3,0.5,0.5,0.8,0.6c0.3,0.1,0.6,0.2,0.9,0.2c0.9,0,1.5-0.2,1.9-0.6
			c0.4-0.4,0.7-0.9,0.6-1.4c0-0.3,0-0.5-0.1-0.9c-0.1-0.3-0.3-0.6-0.5-0.9c-0.2-0.3-0.6-0.5-1-0.7C257.7,77.2,257.1,77.1,256.4,77.1
			 M289,108.4c-0.4,0-0.9-0.1-1.4-0.1c-0.5,0-1-0.1-1.6-0.1c-0.6,0-1.3,0-2.1,0c-1.5,0-3.2,0.1-5.2,0.2s-4.1,0.4-6.4,0.7
			c0.4-0.9,0.8-2,1.1-3.3c0.3-1.3,0.5-2.8,0.8-4.3c0.2-1.5,0.3-3,0.5-4.6c0.1-1.5,0.2-3,0.2-4.3c0-1.3,0.1-2.4,0.1-3.3
			c0-0.9,0-1.5,0-1.7c0-3-0.2-5.8-0.3-8.4c-0.1-1.1-0.2-2.2-0.3-3.4c-0.1-1.1-0.2-2.2-0.4-3.2c-0.1-1-0.3-1.9-0.5-2.7
			c-0.2-0.8-0.4-1.4-0.6-1.9c1.9,0.3,3.6,0.5,5.2,0.7c1.6,0.1,3,0.2,4.3,0.2c0.8,0,1.6,0,2.2-0.1c0.7,0,1.2-0.1,1.7-0.1
			c0.6,0,1-0.1,1.5-0.2c-0.4,2.1-0.8,4.6-1,7.5c-0.3,2.9-0.4,6.1-0.4,9.4c0,1.9,0,3.9,0.1,5.8c0.1,2,0.2,3.9,0.5,5.9
			c0.2,2,0.5,3.9,0.8,5.8C288.1,104.9,288.6,106.7,289,108.4 M273.1,58.9c0-1.1,0.2-2.1,0.6-3c0.4-0.9,1-1.8,1.7-2.5
			c0.7-0.7,1.5-1.3,2.5-1.7c0.9-0.4,2-0.6,3-0.6c1.1,0,2.1,0.2,3,0.6c0.9,0.4,1.8,1,2.5,1.7c0.7,0.7,1.3,1.5,1.7,2.5
			c0.4,0.9,0.6,1.9,0.6,3c0,1.1-0.2,2.1-0.6,3c-0.4,1-1,1.8-1.7,2.5c-0.7,0.7-1.5,1.3-2.5,1.7c-0.9,0.4-1.9,0.6-3,0.6
			c-1.1,0-2.1-0.2-3-0.6c-0.9-0.4-1.8-1-2.5-1.7c-0.7-0.7-1.3-1.5-1.7-2.5C273.3,60.9,273.1,59.9,273.1,58.9 M319.4,66.5
			c-0.2,1-0.3,2.1-0.4,3.1c-0.1,1-0.1,2-0.1,3.1c0,1,0,2,0.1,3c0.1,1,0.2,2,0.4,3c-1.1-0.6-2.4-1-3.8-1.3c-1.4-0.3-2.8-0.5-4.3-0.7
			v3c0,2.6,0,5.3,0.1,7.9c0.1,2.7,0.2,5.3,0.5,7.8c0.2,2.5,0.5,4.9,0.8,7.1c0.3,2.2,0.7,4.2,1.2,6c-0.4,0-0.9-0.1-1.4-0.1
			c-0.5,0-1-0.1-1.6-0.1c-0.6,0-1.3,0-2.1,0c-1.5,0-3.2,0.1-5.2,0.2c-2,0.1-4.1,0.4-6.4,0.7c0.8-4.5,1.3-9.2,1.7-14.1
			c0.3-4.9,0.5-9.6,0.5-14.3v-4.1c-1.6,0.1-3.1,0.3-4.7,0.5c-1.5,0.2-3,0.5-4.4,0.9c0.1-0.3,0.2-0.6,0.2-1c0.1-0.4,0.1-0.8,0.2-1.3
			c0-0.4,0.1-0.9,0.1-1.3c0-0.4,0-0.8,0-1c0-1.2,0-2.3-0.1-3.5c-0.1-1.2-0.2-2.3-0.3-3.5c1.1,0.5,2.4,0.8,4,1.1
			c1.5,0.3,3.1,0.5,4.7,0.6c-0.1-2-0.3-3.9-0.5-5.6c-0.2-1.7-0.4-3.3-0.7-4.6c1.9,0.3,3.6,0.5,5.2,0.6c1.6,0.1,3,0.2,4.3,0.2
			c0.8,0,1.6,0,2.2,0c0.7,0,1.2-0.1,1.7-0.1c0.6,0,1-0.1,1.5-0.2c-0.3,1.1-0.5,2.5-0.6,4.1c-0.2,1.7-0.3,3.5-0.5,5.5
			c1.5-0.2,3-0.4,4.3-0.7C317.3,67.3,318.4,66.9,319.4,66.5 M351.4,76.3c0,1.7-0.2,3.4-0.8,5.1c-0.5,1.6-1.4,3.1-2.6,4.4
			c-1.3,1.3-2.9,2.3-5,3c-2.1,0.8-4.8,1.1-8.1,1.1c0.1,1.1,0.3,2.1,0.7,2.8c0.4,0.8,0.8,1.4,1.4,1.8c0.5,0.5,1.1,0.8,1.7,1
			c0.6,0.2,1.2,0.4,1.7,0.5c0.5,0.1,0.9,0.1,1.3,0.1h0.5c1.4-0.2,2.7-0.5,3.9-1.1c0.5-0.2,1-0.5,1.4-0.9c0.5-0.4,0.9-0.8,1.3-1.3
			c0.4-0.5,0.7-1.1,0.9-1.7c0.2-0.6,0.4-1.4,0.4-2.2c0.6,1.5,1,2.9,1.3,4.2c0.2,1.3,0.4,2.5,0.4,3.6c0,2.1-0.4,4-1.1,5.7
			c-0.7,1.7-1.8,3.3-3.1,4.5c-1.3,1.3-2.9,2.3-4.7,3c-1.8,0.7-3.8,1.1-5.9,1.1c-2.1,0-4.1-0.4-6-1.1c-1.9-0.7-3.6-1.9-5.1-3.4
			c-1.5-1.6-2.7-3.6-3.6-6.1c-0.9-2.5-1.3-5.5-1.3-9.1c0-3.9,0.6-7.3,1.7-10.3c1.1-3,2.6-5.5,4.5-7.5c1.9-2,4-3.6,6.5-4.6
			c2.5-1.1,5-1.6,7.8-1.6c1.3,0,2.6,0.2,3.9,0.4c1.2,0.3,2.3,0.8,3.3,1.5c0.9,0.7,1.7,1.6,2.2,2.7C351.1,73.4,351.4,74.7,351.4,76.3
			 M334.8,84.2c0.6,0,1.4-0.1,2.3-0.4c0.9-0.2,1.7-0.6,2.4-1c0.8-0.4,1.4-1,1.9-1.6c0.5-0.6,0.8-1.4,0.8-2.2c0-0.5-0.2-1-0.6-1.3
			c-0.4-0.3-0.8-0.5-1.4-0.5c-0.8,0-1.5,0.2-2.2,0.7c-0.6,0.5-1.2,1-1.6,1.7c-0.5,0.7-0.8,1.5-1.1,2.3
			C335,82.7,334.8,83.5,334.8,84.2 M368.9,66.7c-0.3,2.2-0.5,4.1-0.6,5.9c-0.1,1.7-0.2,3.4-0.2,5c0,1.5,0.1,3,0.2,4.6
			c0.1,1.5,0.3,3.1,0.4,4.8c1-2.1,1.9-4.3,2.9-6.6c0.9-2.3,1.9-4.7,2.8-7.1c0.9,2.7,1.9,5.3,2.8,7.6c1,2.3,2,4.6,3.1,6.8
			c0.1-1.6,0.2-3.2,0.3-4.7c0.1-1.5,0.1-3.1,0.1-4.7c0-1.5-0.1-3-0.2-4.6c-0.1-1.6-0.3-3.3-0.6-5.1c1.5,0.1,3,0.2,4.4,0.3
			c1.4,0.1,2.8,0.2,4.2,0.2c1.2,0,2.4-0.1,3.7-0.2c1.2-0.1,2.5-0.3,3.9-0.7c-1.9,6.6-3.2,13.3-4,20.3c-0.8,7-1.3,14.1-1.5,21.5
			c-1.8-0.3-3.4-0.5-4.8-0.7c-1.4-0.1-2.6-0.2-3.6-0.2c-0.7,0-1.3,0-1.8,0.1c-0.5,0-0.9,0.1-1.3,0.1c-0.4,0.1-0.7,0.1-1,0.2
			c-0.2-1.7-0.5-3.3-0.7-5c-0.2-1.6-0.5-3.2-0.8-4.8c-0.3-1.5-0.7-3-1.1-4.3s-0.9-2.5-1.5-3.6c-0.4,1.2-0.8,2.4-1.1,3.6
			c-0.3,1.2-0.6,2.5-0.8,3.8c-0.2,1.3-0.4,2.8-0.5,4.3c-0.1,1.5-0.1,3.2-0.1,5c-1.2-0.1-2.2-0.2-3.3-0.3c-1,0-2-0.1-2.9-0.1
			c-1.1,0-2.1,0-3,0.1c-0.9,0.1-1.6,0.1-2.2,0.2c-0.7,0.1-1.3,0.2-1.8,0.3c-0.1-2.4-0.2-5-0.4-7.7c-0.2-2.7-0.5-5.4-0.8-8.1
			c-0.3-2.7-0.6-5.3-1-7.9c-0.4-2.6-0.7-5-1.1-7.3c-0.4-2.3-0.8-4.3-1.1-6.1c-0.4-1.8-0.7-3.3-1-4.4c0.5,0.1,1,0.1,1.6,0.2
			c0.5,0,1.2,0.1,1.9,0.1c0.7,0,1.6,0.1,2.6,0.1c1.3,0,2.8-0.1,4.5-0.2C365.1,67.2,366.9,67,368.9,66.7 M414,108.4
			c-0.4,0-0.9-0.1-1.4-0.1c-0.5,0-1-0.1-1.6-0.1c-0.6,0-1.3,0-2.1,0c-1.5,0-3.2,0.1-5.2,0.2c-2,0.1-4.1,0.4-6.4,0.7
			c0.4-0.9,0.8-2,1.1-3.3c0.3-1.3,0.6-2.8,0.8-4.3c0.2-1.5,0.3-3,0.5-4.6c0.1-1.5,0.2-3,0.2-4.3c0-1.3,0.1-2.4,0.1-3.3
			c0-0.9,0-1.5,0-1.7c0-3-0.1-5.8-0.3-8.4c-0.1-1.1-0.2-2.2-0.3-3.4c-0.1-1.1-0.2-2.2-0.4-3.2c-0.1-1-0.3-1.9-0.5-2.7
			c-0.2-0.8-0.4-1.4-0.6-1.9c1.9,0.3,3.6,0.5,5.2,0.7c1.6,0.1,3,0.2,4.3,0.2c0.8,0,1.6,0,2.2-0.1c0.7,0,1.2-0.1,1.7-0.1
			c0.6,0,1-0.1,1.5-0.2c-0.4,2.1-0.8,4.6-1,7.5c-0.3,2.9-0.4,6.1-0.4,9.4c0,1.9,0,3.9,0.1,5.8c0.1,2,0.2,3.9,0.5,5.9
			c0.2,2,0.5,3.9,0.8,5.8C413.2,104.9,413.6,106.7,414,108.4 M398.1,58.9c0-1.1,0.2-2.1,0.6-3c0.4-0.9,1-1.8,1.7-2.5
			c0.7-0.7,1.5-1.3,2.5-1.7c0.9-0.4,2-0.6,3-0.6c1.1,0,2.1,0.2,3,0.6c0.9,0.4,1.8,1,2.5,1.7c0.7,0.7,1.3,1.5,1.7,2.5
			c0.4,0.9,0.6,1.9,0.6,3c0,1.1-0.2,2.1-0.6,3c-0.4,1-1,1.8-1.7,2.5c-0.7,0.7-1.5,1.3-2.5,1.7c-0.9,0.4-1.9,0.6-3,0.6
			c-1.1,0-2.1-0.2-3-0.6c-1-0.4-1.8-1-2.5-1.7c-0.7-0.7-1.3-1.5-1.7-2.5C398.3,60.9,398.1,59.9,398.1,58.9 M445.4,68.1
			c-0.5,1.6-1.1,3.4-2,5.3c-0.9,1.9-1.9,4-3,6.3c-1.1,2.3-2.2,4.7-3.5,7.2c-1.2,2.6-2.3,5.3-3.4,8.2c0.9,0,1.9-0.1,2.9-0.4
			c1-0.2,2-0.6,3-1.1c1-0.5,2-1.2,3-2c1-0.8,2-1.8,2.9-3c-0.1,0.7-0.2,1.5-0.3,2.5c-0.1,0.9-0.2,1.9-0.2,2.9s-0.1,2.1-0.2,3.2
			c0,1.1,0,2.2,0,3.3c0,1.7,0.1,3.3,0.2,4.8c0.1,1.5,0.3,2.8,0.5,3.9c-2.4-0.3-4.8-0.6-7.2-0.8c-2.5-0.2-5-0.3-7.6-0.3
			c-2.6,0-5.2,0.1-7.8,0.3c-2.6,0.2-5.1,0.4-7.5,0.8c1.2-2.8,2.4-5.7,3.7-8.4c1.3-2.8,2.5-5.5,3.8-8.1c1.2-2.6,2.4-5.2,3.6-7.6
			s2.1-4.7,3-6.9c-1.2,0.1-2.3,0.2-3.3,0.4c-1,0.2-2,0.5-3,0.8c-1,0.3-2,0.8-3,1.3c-1,0.5-2.1,1.1-3.2,1.7c0.8-2.8,1.1-5.6,1.1-8.4
			c0-1,0-1.9-0.1-2.8c-0.1-0.9-0.2-1.8-0.3-2.7c2,0.3,4.1,0.4,6.1,0.5c2,0.1,4.1,0.2,6.2,0.2c2.6,0,5.3-0.1,7.9-0.3
			S442.8,68.5,445.4,68.1 M484,109.1c-0.4,0-0.9-0.1-1.5-0.1c-0.5,0-1.1-0.1-1.8-0.1c-0.7,0-1.4,0-2.2,0c-1.2,0-2.4,0-3.8,0.1
			c-1.4,0.1-2.8,0.3-4.2,0.5l0.1-9.7c-0.9,3.4-2.2,6.1-3.9,8c-1.7,1.9-3.7,2.8-6,2.8c-0.7,0-1.5-0.1-2.4-0.3
			c-0.9-0.2-1.8-0.5-2.8-1.1c-0.9-0.5-1.9-1.2-2.7-2.2c-0.9-0.9-1.7-2.1-2.4-3.6c-0.7-1.5-1.2-3.2-1.7-5.3c-0.4-2.1-0.6-4.6-0.6-7.4
			c0-3.9,0.4-7.2,1.2-10c0.8-2.8,1.8-5,3-6.8c1.2-1.8,2.6-3,4.1-3.8c1.5-0.8,2.9-1.2,4.3-1.2c1.2,0,2.3,0.2,3.3,0.5
			c1,0.3,1.8,0.8,2.6,1.3c0.8,0.5,1.4,1.1,2,1.8c0.6,0.6,1,1.3,1.4,2c-0.1-0.8-0.2-1.6-0.3-2.5c-0.1-0.9-0.3-1.8-0.5-2.8
			c1.5,0.3,3,0.5,4.6,0.6c1.5,0.1,3,0.1,4.3,0.1c1.6,0,2.8,0,3.8-0.1c0.6,0,1.1-0.1,1.5-0.1c-0.3,1.2-0.5,2.4-0.7,3.9
			c-0.2,1.4-0.4,3-0.5,4.6c-0.2,1.6-0.3,3.3-0.4,5.1c-0.1,1.8-0.1,3.6-0.1,5.5c0,3.5,0.2,7,0.5,10.5
			C482.6,102.7,483.2,106,484,109.1 M469.8,89.2v-5.6c0-0.6,0-1.3-0.1-1.9s-0.2-1.2-0.5-1.8c-0.2-0.5-0.6-1-1-1.3
			c-0.5-0.3-1.1-0.5-1.9-0.5c-0.8,0-1.5,0.3-2.1,0.9c-0.5,0.6-1,1.4-1.3,2.4c-0.3,1-0.6,2.2-0.7,3.6c-0.1,1.4-0.2,2.9-0.2,4.5
			c0,0.9,0.1,1.9,0.2,2.8c0.1,0.9,0.3,1.8,0.6,2.6c0.3,0.8,0.7,1.4,1.2,1.9c0.5,0.5,1.1,0.7,1.9,0.7c0.8,0,1.5-0.3,2-0.9
			c0.5-0.6,0.9-1.3,1.2-2.2c0.3-0.9,0.4-1.7,0.5-2.7C469.7,90.8,469.8,89.9,469.8,89.2 M505.8,77.1c-0.7,0-1.4,0.2-1.9,0.6
			c-0.6,0.4-1.1,1-1.5,1.7c-0.5,0.7-0.8,1.6-1.2,2.6c-0.3,1-0.6,2.1-0.8,3.4c0,2,0,4,0.1,6c0.1,2,0.2,4,0.4,6s0.5,3.9,0.8,5.8
			c0.3,1.9,0.7,3.7,1.2,5.3c-0.4,0-0.8-0.1-1.3-0.1c-0.4,0-0.9-0.1-1.5-0.1c-0.6,0-1.3,0-2,0c-1.4,0-3.1,0.1-5,0.2
			c-1.9,0.1-4,0.4-6.2,0.7c0.3-1.3,0.5-2.9,0.7-4.8c0.2-1.9,0.4-3.9,0.5-6.1c0.1-2.2,0.2-4.5,0.3-6.9c0.1-2.4,0.1-4.8,0.1-7.1
			c0-1.7,0-3.4-0.1-5.1c0-1.7-0.1-3.2-0.2-4.7c-0.1-1.5-0.2-2.8-0.3-4.1c-0.1-1.2-0.3-2.3-0.5-3.2c1.9,0.3,3.6,0.5,5.1,0.7
			c1.5,0.1,2.9,0.2,4.1,0.2c0.8,0,1.5,0,2.1-0.1c0.6,0,1.1-0.1,1.6-0.1c0.5-0.1,0.9-0.1,1.3-0.2c-0.3,1.2-0.5,2.4-0.6,3.8
			c1.2-1.5,2.5-2.5,3.9-3.2c1.4-0.7,2.8-1,4-1c2.1,0,3.8,0.4,5.3,1.1c1.4,0.8,2.6,1.7,3.5,2.9c0.9,1.2,1.5,2.6,1.9,4.1
			c0.4,1.6,0.6,3.1,0.6,4.7c0,1.5-0.2,3.1-0.7,4.5c-0.4,1.5-1.1,2.8-1.9,4c-0.8,1.2-1.9,2.1-3.1,2.8c-1.2,0.7-2.6,1.1-4.2,1.1
			c-1.4,0-2.5-0.2-3.5-0.7c-1-0.5-1.8-1.1-2.4-1.8c-0.6-0.7-1.1-1.6-1.4-2.4c-0.3-0.9-0.4-1.8-0.4-2.7c0-0.9,0.1-1.8,0.4-2.7
			c0.3-0.9,0.7-1.7,1.2-2.4c0.2,0.5,0.4,0.9,0.6,1.2c0.2,0.3,0.5,0.5,0.7,0.6c0.3,0.1,0.6,0.2,0.9,0.2c0.9,0,1.5-0.2,1.9-0.6
			c0.4-0.4,0.6-0.9,0.6-1.4c0-0.3,0-0.5-0.1-0.9c-0.1-0.3-0.3-0.6-0.5-0.9c-0.2-0.3-0.6-0.5-1-0.7C507.1,77.2,506.5,77.1,505.8,77.1
			 M557.7,109.1c-0.5,0-1.1-0.1-1.8-0.1c-0.6,0-1.2-0.1-2-0.1c-0.8,0-1.6,0-2.6,0c-1.3,0-2.7,0-4.2,0.1c-1.5,0.1-2.9,0.3-4.4,0.5
			c0.1-0.3,0.3-0.9,0.5-1.7c0.2-0.9,0.3-1.8,0.5-2.9c0.1-1.1,0.3-2.1,0.4-3.2c0.1-1,0.2-1.8,0.3-2.4c-0.4,1.7-0.9,3.3-1.5,4.7
			c-0.7,1.4-1.4,2.6-2.3,3.6c-0.9,1-1.9,1.8-2.9,2.3c-1.1,0.6-2.2,0.8-3.4,0.8c-0.6,0-1.2,0-2-0.1c-0.8-0.1-1.7-0.3-2.6-0.7
			c-0.9-0.4-1.8-1-2.7-1.8c-0.9-0.8-1.7-2-2.5-3.5c-0.7-1.5-1.3-3.4-1.8-5.7c-0.5-2.3-0.7-5.1-0.7-8.4c0-2.8,0.2-5.2,0.6-7.4
			c0.4-2.2,0.9-4.1,1.6-5.8c0.7-1.7,1.5-3.1,2.4-4.2c0.9-1.2,1.9-2.1,2.9-2.9c1-0.7,2-1.3,3.1-1.6c1.1-0.3,2.1-0.5,3-0.5
			c1.1,0,2.1,0.2,2.9,0.5s1.7,0.8,2.4,1.4c0.7,0.6,1.3,1.2,1.9,1.9c0.5,0.7,1,1.4,1.4,2.2c0-1.1-0.1-2.2-0.1-3.5
			c0-1.2-0.1-2.5-0.2-3.8c-0.1-1.3-0.2-2.5-0.3-3.8c-0.1-1.2-0.2-2.4-0.3-3.4c-0.1-1.1-0.3-2-0.4-2.8c-0.2-0.8-0.3-1.4-0.5-1.8
			c1.8,0.3,3.6,0.5,5.2,0.7c1.6,0.1,3,0.2,4.3,0.2c0.8,0,1.6,0,2.2-0.1c0.7,0,1.2-0.1,1.7-0.1c0.6,0,1-0.1,1.4-0.2
			c-0.3,1.2-0.5,2.7-0.7,4.5c-0.2,1.9-0.4,4-0.5,6.3c-0.1,2.3-0.3,4.8-0.3,7.5c-0.1,2.7-0.1,5.4-0.1,8.2c0,2.6,0,5.1,0.1,7.7
			c0.1,2.5,0.2,5,0.4,7.3c0.2,2.3,0.4,4.5,0.7,6.6C557,105.7,557.3,107.5,557.7,109.1 M543.5,89.2v-5.6c0-0.6,0-1.3-0.1-1.9
			c-0.1-0.6-0.2-1.2-0.5-1.8c-0.2-0.5-0.6-1-1.1-1.3c-0.5-0.3-1.1-0.5-1.9-0.5c-0.6,0-1,0.2-1.4,0.7c-0.4,0.4-0.7,1-1,1.7
			c-0.3,0.7-0.5,1.5-0.6,2.3s-0.3,1.7-0.3,2.6c-0.1,0.8-0.1,1.6-0.1,2.3c0,0.7,0,1.3,0,1.7c0,0.6,0,1.4,0.1,2.3
			c0.1,0.9,0.2,1.8,0.4,2.6c0.2,0.8,0.5,1.6,1,2.2c0.4,0.6,1,0.9,1.8,0.9c0.8,0,1.5-0.3,2-0.9c0.5-0.6,0.9-1.3,1.2-2.2
			c0.3-0.9,0.4-1.7,0.5-2.7C543.5,90.8,543.5,89.9,543.5,89.2 M110.6,37.8c-1.4-1.4-3.4-2.2-5.4-2.2c-2,0-3.9,0.8-5.4,2.2l-6.7,6.7
			c-3,3-3,7.8,0,10.7l6.7,6.7c3,3,7.8,3,10.7,0c0,0,0,0,0,0l6.7-6.7c3-3,3-7.8,0-10.7L110.6,37.8z M87.1,61.3
			c-1.4-1.4-3.4-2.2-5.4-2.2c-2,0-4,0.8-5.4,2.2L2.4,135.2c-3,2.9-3,7.7-0.1,10.7c0,0,0,0,0.1,0.1l6.7,6.7c2.9,3,7.7,3,10.7,0.1
			c0,0,0.1-0.1,0.1-0.1l73.9-73.9c3-3,3-7.8,0-10.7L87.1,61.3z M83.7,75.4l-63.8,63.8c-1.1,1.1-2.9,1.1-4,0c-1.1-1.1-1.1-2.9,0-4
			c0,0,0,0,0,0l63.8-63.8c1.1-1.2,2.9-1.2,4-0.1s1.2,2.9,0.1,4C83.8,75.4,83.8,75.4,83.7,75.4 M79.7,28.4c1.1,1.1,2.9,1.2,4,0.1
			c1.1-1.1,1.2-2.9,0.1-4c0,0-0.1-0.1-0.1-0.1L66.9,7.6c-1.1-1.2-2.9-1.2-4-0.1c-1.2,1.1-1.2,2.9-0.1,4c0,0,0.1,0.1,0.1,0.1
			L79.7,28.4z M128.7,29.3c0.7,0,1.4-0.3,2-0.8l16.8-16.8c1.2-1.1,1.2-2.9,0.1-4c-1.1-1.2-2.9-1.2-4-0.1c0,0-0.1,0.1-0.1,0.1
			l-16.8,16.8c-1.1,1.1-1.1,2.9,0,4C127.3,29,128,29.3,128.7,29.3 M130.8,71.4c-1.1-1.2-2.9-1.2-4-0.1s-1.2,2.9-0.1,4
			c0,0,0.1,0.1,0.1,0.1l16.8,16.8c1.2,1.1,3,1,4-0.1c1-1.1,1-2.8,0-3.9L130.8,71.4z M105.2,20c1.6,0,2.8-1.3,2.8-2.9V2.9
			c0-1.6-1.3-2.9-2.8-2.9c-1.6,0-2.9,1.3-2.9,2.9v14.3C102.4,18.7,103.7,20,105.2,20 M155.6,50.4h-14.3c-1.6,0-2.8,1.3-2.8,2.9
			c0,1.6,1.3,2.9,2.8,2.9h14.3c1.6,0,2.8-1.3,2.8-2.9C158.5,51.7,157.2,50.4,155.6,50.4L155.6,50.4 M105.2,86.6
			c-1.6,0-2.8,1.3-2.9,2.8v14.3c0,1.6,1.3,2.9,2.9,2.9c1.6,0,2.8-1.3,2.8-2.9V89.4C108.1,87.8,106.8,86.6,105.2,86.6
			C105.2,86.6,105.2,86.6,105.2,86.6 M54.9,56.1h14.3c1.6,0,2.8-1.3,2.8-2.9c0-1.6-1.3-2.9-2.8-2.9H54.9c-1.6,0-2.8,1.3-2.8,2.9
			C52,54.9,53.3,56.1,54.9,56.1"/>
	</g>
	<rect id="space-saver" y="0" class="st2" width="561" height="155"/>
</g>
</svg>
